D:\school\WTK\thesis\model\3dpredictsim\Results\Batchsim_tmt_linear_v2\Pog_s1_tmt_aCst_d02_k800_ig24_act_GRF.mot
nRows=22
nColumns=19

name D:\school\WTK\thesis\model\3dpredictsim\Results\Batchsim_tmt_linear_v2\Pog_s1_tmt_aCst_d02_k800_ig24_act_GRF.mot
datacolumns 19
datarows 22
range 0.0000000000 0.2601142425
endheader
time 	ground_force_vx	ground_force_vy	ground_force_vz	ground_force_px	ground_force_py	ground_force_pz	1_ground_force_vx	1_ground_force_vy	1_ground_force_vz	1_ground_force_px	1_ground_force_py	1_ground_force_pz	ground_torque_x	ground_torque_y	ground_torque_z	1_ground_torque_x	1_ground_torque_y	1_ground_torque_z
        0.0000000000	      -56.1404375817	       44.3710098159	        2.3967129260	        0.3886137529	        0.0000000000	        0.0294718724	       50.5797765359	      286.3165320092	       -5.5086191449	       -0.3561561203	        0.0000000000	       -0.0507988000	        0.0000000000	        0.0000000000	        0.0000000000	        0.0000000000	        0.0000000000	        0.0000000000	
        0.0123863925	     -129.7654826425	      115.4322849464	        7.2900867797	        0.3849431176	        0.0000000000	        0.0332568336	       30.2338029472	      235.6367319488	       -7.1579518909	       -0.3425849476	        0.0000000000	       -0.0494578818	        0.0000000000	        0.0000000000	        0.0000000000	        0.0000000000	        0.0000000000	        0.0000000000	
        0.0247727850	     -225.6847493574	      311.4934020327	       11.2774081354	        0.3491966460	        0.0000000000	        0.0472695117	       33.3563591457	      197.6628833183	       -9.8770619872	       -0.3420076805	        0.0000000000	       -0.0496514776	        0.0000000000	        0.0000000000	        0.0000000000	        0.0000000000	        0.0000000000	        0.0000000000	
        0.0371591775	     -199.1467218597	      557.3979706375	      -15.2556869214	        0.3180240286	        0.0000000000	        0.0586274805	       29.9243589019	      151.5204837885	      -14.3577244591	       -0.3415503575	        0.0000000000	       -0.0500385665	        0.0000000000	        0.0000000000	        0.0000000000	        0.0000000000	        0.0000000000	        0.0000000000	
        0.0495455700	     -200.4216475529	      710.4368838414	      -16.7213726293	        0.3083442996	        0.0000000000	        0.0620087210	       17.6617953766	       95.0650076296	      -14.9086243787	       -0.3414109255	        0.0000000000	       -0.0504210400	        0.0000000000	        0.0000000000	        0.0000000000	        0.0000000000	        0.0000000000	        0.0000000000	
        0.0619319625	     -198.9268498494	      838.9610572983	      -23.1443638331	        0.3019823725	        0.0000000000	        0.0642314720	       -0.7180664237	       35.6968477258	       -6.7548736576	       -0.3426002582	        0.0000000000	       -0.0502560509	        0.0000000000	        0.0000000000	        0.0000000000	        0.0000000000	        0.0000000000	        0.0000000000	
        0.0743183550	     -196.1881171602	      910.0337344571	      -26.4012987880	        0.2983091004	        0.0000000000	        0.0655126631	       -2.1587519558	        2.0749961231	        0.0052170094	        0.0000000000	        0.0000000000	        0.0000000000	        0.0000000000	        0.0000000000	        0.0000000000	        0.0000000000	        0.0000000000	        0.0000000000	
        0.0867047475	     -182.2838974367	      901.1288956739	      -23.5116684981	        0.2960189349	        0.0000000000	        0.0662074285	       -8.8094102436	        6.7263360066	        0.6784606834	        0.0000000000	        0.0000000000	        0.0000000000	        0.0000000000	        0.0000000000	        0.0000000000	        0.0000000000	        0.0000000000	        0.0000000000	
        0.0990911400	     -162.3706351686	      854.8407087104	      -21.4221792543	        0.2949683573	        0.0000000000	        0.0665649861	       -9.2544296650	        6.0075026663	        0.7465586124	        0.0000000000	        0.0000000000	        0.0000000000	        0.0000000000	        0.0000000000	        0.0000000000	        0.0000000000	        0.0000000000	        0.0000000000	
        0.1114775325	     -142.8280956232	      795.4568944718	      -19.3080609657	        0.2953243615	        0.0000000000	        0.0668045013	       -8.2756677633	        4.7616851145	        0.6748865625	        0.0000000000	        0.0000000000	        0.0000000000	        0.0000000000	        0.0000000000	        0.0000000000	        0.0000000000	        0.0000000000	        0.0000000000	
        0.1238639250	     -125.9651867426	      745.6868903001	      -18.1161922992	        0.2965124626	        0.0000000000	        0.0669922556	       -5.2623882378	        2.7391433578	        0.4266792818	        0.0000000000	        0.0000000000	        0.0000000000	        0.0000000000	        0.0000000000	        0.0000000000	        0.0000000000	        0.0000000000	        0.0000000000	
        0.1362503175	     -110.8423850728	      701.6027150351	      -17.2898539244	        0.2980196446	        0.0000000000	        0.0671704364	       -3.7232128726	        1.7997274363	        0.2906053984	        0.0000000000	        0.0000000000	        0.0000000000	        0.0000000000	        0.0000000000	        0.0000000000	        0.0000000000	        0.0000000000	        0.0000000000	
        0.1486367100	      -96.0637045462	      665.6049504988	      -17.0726627323	        0.2997121948	        0.0000000000	        0.0673337229	       -2.7779886250	        1.2861391707	        0.1801524422	        0.0000000000	        0.0000000000	        0.0000000000	        0.0000000000	        0.0000000000	        0.0000000000	        0.0000000000	        0.0000000000	        0.0000000000	
        0.1610231025	      -84.2835325877	      639.5860601846	      -17.7933501169	        0.3015836014	        0.0000000000	        0.0674192249	       -1.9561242091	        0.8728518822	        0.1043948160	        0.0000000000	        0.0000000000	        0.0000000000	        0.0000000000	        0.0000000000	        0.0000000000	        0.0000000000	        0.0000000000	        0.0000000000	
        0.1734094950	      -74.9991543568	      619.9617995312	      -18.8637195555	        0.3035276928	        0.0000000000	        0.0674266803	       -1.3876399107	        0.6016408743	        0.0583278417	        0.0000000000	        0.0000000000	        0.0000000000	        0.0000000000	        0.0000000000	        0.0000000000	        0.0000000000	        0.0000000000	        0.0000000000	
        0.1857958875	      -67.2445717284	      603.6622458697	      -20.0269750277	        0.3054238685	        0.0000000000	        0.0673789616	       -1.0422436284	        0.4417510754	        0.0324374132	        0.0000000000	        0.0000000000	        0.0000000000	        0.0000000000	        0.0000000000	        0.0000000000	        0.0000000000	        0.0000000000	        0.0000000000	
        0.1981822800	      -60.5868753328	      589.3862105754	      -21.1737172143	        0.3071344352	        0.0000000000	        0.0672947709	       -0.8554138538	        0.3557428131	        0.0181245250	        0.0000000000	        0.0000000000	        0.0000000000	        0.0000000000	        0.0000000000	        0.0000000000	        0.0000000000	        0.0000000000	        0.0000000000	
        0.2105686725	      -54.6703409887	      576.4512880263	      -22.3943132879	        0.3085622611	        0.0000000000	        0.0671900104	       -0.7816364735	        0.3194901757	        0.0100821893	        0.0000000000	        0.0000000000	        0.0000000000	        0.0000000000	        0.0000000000	        0.0000000000	        0.0000000000	        0.0000000000	        0.0000000000	
        0.2229550650	      -49.3161197551	      564.2003383441	      -23.5008315229	        0.3097066252	        0.0000000000	        0.0670738044	       -0.7825233480	        0.3146911826	        0.0051211551	        0.0000000000	        0.0000000000	        0.0000000000	        0.0000000000	        0.0000000000	        0.0000000000	        0.0000000000	        0.0000000000	        0.0000000000	
        0.2353414575	      -44.3468918113	      552.1662508606	      -24.4317926378	        0.3106072332	        0.0000000000	        0.0669480017	       -0.8309970660	        0.3291648991	        0.0015554929	        0.0000000000	        0.0000000000	        0.0000000000	        0.0000000000	        0.0000000000	        0.0000000000	        0.0000000000	        0.0000000000	        0.0000000000	
        0.2477278500	      -39.5791747692	      540.2797228217	      -25.2702165481	        0.3112820222	        0.0000000000	        0.0668088323	       -0.9047067657	        0.3534790965	       -0.0013715396	        0.0000000000	        0.0000000000	        0.0000000000	        0.0000000000	        0.0000000000	        0.0000000000	        0.0000000000	        0.0000000000	        0.0000000000	
        0.2601142425	      -34.8163978012	      528.7453933212	      -26.0139512581	        0.3117244977	        0.0000000000	        0.0666546349	       -0.9824901242	        0.3793197434	       -0.0039560725	        0.0000000000	        0.0000000000	        0.0000000000	        0.0000000000	        0.0000000000	        0.0000000000	        0.0000000000	        0.0000000000	        0.0000000000	
